<?xml version="1.0" standalone="no"?>
<!DOCTYPE svg PUBLIC "-//W3C//DTD SVG 20010904//EN"
 "http://www.w3.org/TR/2001/REC-SVG-20010904/DTD/svg10.dtd">
<svg version="1.0" xmlns="http://www.w3.org/2000/svg"
 width="443.000000pt" height="117.000000pt" viewBox="0 0 443.000000 117.000000"
 preserveAspectRatio="xMidYMid meet">

<g transform="translate(0.000000,117.000000) scale(0.100000,-0.100000)"
fill="#000000" stroke="none">
<path d="M1230 590 c0 -313 3 -480 10 -480 7 0 10 167 10 480 0 313 -3 480
-10 480 -7 0 -10 -167 -10 -480z"/>
<path d="M2695 1059 c-22 -6 -74 -9 -116 -7 l-76 3 1 -180 c1 -132 -3 -189
-13 -212 -16 -40 -35 -42 -58 -6 -16 24 -18 51 -18 208 l1 180 -283 4 -283 3
0 -26 0 -26 -50 25 c-41 21 -63 25 -134 25 -47 0 -107 -5 -134 -10 l-48 -11 2
-92 c0 -51 2 -100 3 -109 3 -35 56 -81 137 -118 85 -40 103 -55 86 -72 -16
-16 -54 -2 -102 36 -50 39 -48 40 -111 -35 l-40 -48 33 -37 c48 -54 118 -84
199 -84 52 0 73 5 99 23 46 30 70 75 76 139 8 85 -13 113 -132 173 -59 30 -99
56 -99 65 0 27 39 21 97 -13 l56 -35 34 49 c21 31 36 45 42 39 6 -6 29 -10 53
-10 l43 0 0 -215 0 -215 85 0 85 0 0 214 0 215 53 3 52 3 5 65 c4 57 6 61 13
35 5 -16 8 -70 8 -120 -3 -210 35 -334 118 -387 40 -25 53 -29 101 -26 70 5
102 27 135 93 35 72 47 162 43 323 -2 78 0 138 3 134 23 -26 29 -94 29 -315
l0 -239 88 4 c108 6 176 33 233 95 55 60 70 101 70 189 0 126 -62 229 -169
285 -50 25 -154 34 -217 18z m209 -232 c34 -46 22 -126 -25 -155 -18 -12 -19
-9 -19 89 0 108 6 117 44 66z"/>
<path d="M3070 1048 c0 -7 7 -35 15 -62 11 -38 15 -105 15 -283 l0 -233 170 0
170 0 0 75 0 75 -90 0 -90 0 0 35 0 35 80 0 80 0 0 75 0 75 -80 0 -80 0 0 35
0 35 90 0 90 0 1 63 1 62 14 -50 c10 -36 14 -115 14 -282 l0 -233 80 0 79 0 3
138 3 137 51 -130 51 -130 87 -3 86 -3 0 291 0 290 -85 0 -85 0 -1 -142 0
-143 -52 133 -52 132 -97 0 c-59 0 -98 4 -98 10 0 6 -68 10 -185 10 -141 0
-185 -3 -185 -12z"/>
<path d="M3924 998 c3 -29 6 -63 6 -75 0 -21 5 -23 50 -23 l50 0 0 -215 0
-215 85 0 85 0 0 215 0 215 49 0 c56 0 61 8 61 98 l0 52 -196 0 -197 0 7 -52z"/>
<path d="M240 680 l0 -330 28 0 c45 0 167 -36 238 -69 36 -17 68 -31 70 -31 2
0 4 147 4 326 l0 325 -76 35 c-72 34 -207 74 -246 74 -17 0 -18 -16 -18 -330z"/>
<path d="M834 991 c-39 -10 -106 -34 -148 -54 l-76 -36 0 -326 0 -325 38 19
c59 30 190 71 248 77 l54 7 0 328 0 329 -22 -1 c-13 0 -55 -8 -94 -18z"/>
<path d="M180 616 l0 -323 84 -6 c84 -6 216 -35 287 -63 36 -15 43 -14 101 5
110 35 188 52 274 58 l84 6 0 323 c0 281 -2 324 -15 324 -13 0 -15 -41 -15
-305 l0 -305 -37 0 c-56 0 -213 -45 -284 -81 l-62 -31 -66 30 c-116 52 -221
82 -288 82 l-33 0 0 305 c0 264 -2 305 -15 305 -13 0 -15 -43 -15 -324z"/>
<path d="M120 536 l0 -333 148 1 c111 1 166 -3 226 -18 85 -19 114 -18 256 9
65 13 113 15 203 10 l117 -6 -2 333 c-3 308 -4 333 -20 336 -17 3 -18 -16 -18
-297 l0 -301 -57 0 c-82 -1 -195 -23 -295 -57 l-86 -30 -48 19 c-88 33 -203
58 -299 65 l-95 6 0 299 c0 258 -2 298 -15 298 -13 0 -15 -44 -15 -334z"/>
<path d="M1808 333 l-3 -68 -24 63 c-26 69 -29 70 -133 56 -40 -6 -47 -11 -71
-53 l-26 -46 -1 53 0 52 -44 0 -45 0 10 -32 c5 -18 9 -81 9 -140 l0 -108 34 0
c34 0 35 1 38 48 l3 47 25 -47 24 -48 78 0 78 0 0 63 1 62 23 -55 c21 -53 23
-55 64 -58 l42 -3 0 140 0 141 -40 0 -39 0 -3 -67z m-128 -95 l-1 -113 -29 55
c-16 30 -29 62 -30 70 0 19 42 100 52 100 5 0 8 -51 8 -112z"/>
<path d="M1938 360 l-40 -40 4 -70 c3 -62 7 -74 33 -100 39 -39 81 -46 121
-22 59 37 82 136 48 208 -37 77 -104 86 -166 24z m97 -60 c14 -22 8 -73 -10
-86 -16 -12 -21 -11 -37 3 -20 18 -23 45 -8 74 11 20 45 26 55 9z"/>
<path d="M2114 373 c3 -16 13 -68 21 -118 26 -157 22 -147 63 -143 34 3 37 6
46 48 l10 45 10 -47 c9 -47 10 -48 46 -48 l37 0 20 118 21 117 1 -117 1 -118
80 0 80 0 0 35 c0 34 -1 35 -40 35 l-40 0 0 110 0 110 -74 0 -74 0 -9 -57 -9
-58 -8 48 c-8 45 -10 47 -41 47 -34 0 -43 -14 -46 -70 l-1 -25 -8 25 c-4 14
-8 40 -9 58 -1 31 -3 32 -42 32 -40 0 -41 -1 -35 -27z"/>
<path d="M2572 393 c-19 -4 -23 -9 -18 -26 3 -12 6 -75 6 -139 l0 -118 80 0
80 0 0 35 c0 34 -1 35 -40 35 -33 0 -40 3 -40 20 0 16 7 20 35 20 33 0 35 2
35 35 0 33 -2 35 -35 35 -28 0 -35 4 -35 20 0 17 7 20 40 20 36 0 40 2 40 26
0 14 4 23 10 19 6 -4 10 -60 10 -136 0 -146 -2 -142 83 -118 63 17 99 57 104
115 6 57 -9 94 -52 134 -25 24 -33 25 -153 26 -70 1 -138 0 -150 -3z m277
-115 c9 -26 0 -60 -17 -66 -8 -2 -12 12 -12 42 0 49 15 61 29 24z"/>
<path d="M3011 382 c-95 -48 -93 -208 3 -256 33 -16 43 -17 78 -6 l41 12 -7
71 c-4 39 -8 71 -9 72 -1 1 -21 0 -44 -3 -35 -3 -43 -8 -43 -24 0 -12 8 -27
18 -34 16 -12 15 -13 -6 -14 -14 0 -26 9 -34 25 -10 22 -8 30 9 53 11 15 34
31 52 36 27 8 31 14 31 41 0 48 -31 57 -89 27z"/>
<path d="M3148 393 c-24 -4 -26 -7 -18 -29 6 -14 10 -77 10 -140 l0 -114 80 0
80 0 0 34 c0 34 -1 35 -42 38 -57 4 -60 32 -5 36 35 3 37 5 37 38 0 33 -1 34
-41 34 -33 0 -40 3 -37 18 2 12 15 18 46 20 41 3 42 4 42 38 l0 34 -62 -1
c-35 -1 -75 -4 -90 -6z"/>
<path d="M3383 379 c4 -13 7 -79 7 -146 l0 -123 40 0 c40 0 40 0 40 38 0 34 3
39 35 51 48 17 67 48 63 107 -4 63 -30 82 -122 91 l-69 6 6 -24z m112 -84 c0
-16 -6 -30 -12 -32 -9 -3 -13 7 -13 32 0 25 4 35 13 33 6 -3 12 -17 12 -33z"/>
<path d="M3635 378 c-51 -40 -70 -124 -41 -191 54 -129 206 -78 206 70 0 57
-9 84 -43 121 -27 29 -84 30 -122 0z m85 -87 c14 -28 13 -46 -7 -70 -16 -19
-20 -20 -37 -8 -32 24 -18 97 20 97 7 0 18 -9 24 -19z"/>
<path d="M3804 384 c3 -9 6 -74 6 -145 l0 -129 40 0 40 0 0 145 0 145 -46 0
c-38 0 -45 -3 -40 -16z"/>
<path d="M4038 333 l-3 -68 -23 63 -23 62 -46 0 c-42 0 -45 -2 -39 -22 3 -13
6 -76 6 -140 l0 -118 40 0 39 0 3 62 3 63 20 -55 c20 -54 21 -55 63 -58 l42
-3 0 140 0 141 -40 0 -39 0 -3 -67z"/>
<path d="M4130 355 c0 -31 3 -35 25 -35 l25 0 0 -105 0 -105 40 0 40 0 0 105
0 105 25 0 c22 0 25 4 25 35 l0 35 -90 0 -90 0 0 -35z"/>
</g>
</svg>
