<svg width="274.202" height="82.902" viewBox="0 0 274.202 82.902" xmlns="http://www.w3.org/2000/svg"><g id="svgGroup" stroke-linecap="round" fill-rule="evenodd" font-size="9pt" stroke="#000" stroke-width="0.25mm" fill="black" style="stroke:#000;stroke-width:0.25mm;fill:black"><path d="M 129.902 36.702 L 129.902 44.002 L 131.002 67.502 L 117.602 70.002 L 118.802 45.702 A 208.098 208.098 0 0 0 118.086 33.378 Q 117.564 27.556 116.716 22.389 A 126.465 126.465 0 0 0 116.602 21.702 L 128.702 19.102 A 173.937 173.937 0 0 1 129.663 29.714 A 159.286 159.286 0 0 1 129.702 30.402 Q 131.202 28.402 133.102 26.452 A 16.538 16.538 0 0 1 134.504 25.185 Q 136.033 23.94 138.329 22.522 A 61.083 61.083 0 0 1 139.102 22.052 Q 143.202 19.602 147.402 19.602 Q 151.602 19.602 154.502 22.302 A 11.468 11.468 0 0 1 157.403 26.708 A 16.004 16.004 0 0 1 158.202 29.702 A 40.831 40.831 0 0 1 162.756 24.934 Q 168.826 19.602 175.002 19.602 A 12.762 12.762 0 0 1 178.737 20.123 A 9.924 9.924 0 0 1 183.402 23.152 Q 186.502 26.702 186.502 32.802 L 185.902 44.002 L 187.002 68.002 L 173.502 70.502 L 174.702 44.702 Q 174.702 38.237 173.648 35.81 A 4.791 4.791 0 0 0 173.502 35.502 Q 172.302 33.202 168.002 33.202 Q 164.725 33.202 160.81 35.118 A 30.714 30.714 0 0 0 158.302 36.502 L 157.902 44.002 L 159.002 68.002 L 145.502 70.502 L 146.702 44.702 Q 146.702 38.237 145.648 35.81 A 4.791 4.791 0 0 0 145.502 35.502 Q 144.354 33.303 140.279 33.207 A 16.049 16.049 0 0 0 139.902 33.202 A 13.514 13.514 0 0 0 136.129 33.78 Q 134.496 34.255 132.73 35.12 A 31.52 31.52 0 0 0 129.902 36.702 Z M 50.102 59.902 L 63.302 75.602 L 53.402 82.902 L 41.902 66.902 Q 34.902 71.102 27.102 71.102 A 23.951 23.951 0 0 1 9.17 63.374 A 31.724 31.724 0 0 1 7.802 61.852 A 32.906 32.906 0 0 1 0.276 43.95 A 43.513 43.513 0 0 1 0.002 39.002 A 50.948 50.948 0 0 1 1.536 26.18 A 37.915 37.915 0 0 1 9.302 11.002 A 30.637 30.637 0 0 1 20.435 2.501 A 30.987 30.987 0 0 1 33.002 0.002 A 25.13 25.13 0 0 1 44.368 2.542 A 25.573 25.573 0 0 1 52.452 9.002 A 31.638 31.638 0 0 1 59.48 24.374 A 43.775 43.775 0 0 1 60.102 31.902 Q 60.102 48.102 50.102 59.902 Z M 87.302 40.502 L 94.102 40.502 L 94.102 38.802 Q 94.102 34.712 92.708 32.782 A 4.282 4.282 0 0 0 92.102 32.102 A 5.293 5.293 0 0 0 90.51 31.153 Q 88.909 30.513 86.372 30.355 A 28.462 28.462 0 0 0 84.602 30.302 A 13.902 13.902 0 0 0 82.634 30.453 Q 81.642 30.596 80.53 30.872 A 29.105 29.105 0 0 0 79.152 31.252 A 33.531 33.531 0 0 0 76.252 32.285 Q 74.784 32.879 73.184 33.661 A 61.38 61.38 0 0 0 72.102 34.202 L 69.202 26.302 Q 73.229 23.493 78.878 21.21 A 69.256 69.256 0 0 1 79.652 20.902 Q 85.659 18.558 89.615 18.504 A 13.585 13.585 0 0 1 89.802 18.502 Q 105.502 18.502 105.502 33.702 L 105.502 53.302 A 21.378 21.378 0 0 0 106.172 58.451 Q 106.757 60.81 107.854 63.358 A 42.933 42.933 0 0 0 109.002 65.802 L 98.402 70.302 A 71.385 71.385 0 0 1 96.585 66.567 Q 95.414 63.959 94.702 61.702 A 22.337 22.337 0 0 1 90.981 66.079 A 14.845 14.845 0 0 1 80.802 70.002 A 15.145 15.145 0 0 1 76.206 69.335 A 12.315 12.315 0 0 1 71.152 66.252 A 12.498 12.498 0 0 1 67.732 59.694 A 18.081 18.081 0 0 1 67.402 56.152 Q 67.402 49.802 73.202 45.152 Q 79.002 40.502 87.302 40.502 Z M 214.502 40.502 L 221.302 40.502 L 221.302 38.802 Q 221.302 34.712 219.908 32.782 A 4.282 4.282 0 0 0 219.302 32.102 A 5.293 5.293 0 0 0 217.71 31.153 Q 216.109 30.513 213.572 30.355 A 28.462 28.462 0 0 0 211.802 30.302 A 13.902 13.902 0 0 0 209.834 30.453 Q 208.842 30.596 207.73 30.872 A 29.105 29.105 0 0 0 206.352 31.252 A 33.531 33.531 0 0 0 203.452 32.285 Q 201.984 32.879 200.384 33.661 A 61.38 61.38 0 0 0 199.302 34.202 L 196.402 26.302 Q 200.429 23.493 206.078 21.21 A 69.256 69.256 0 0 1 206.852 20.902 Q 212.859 18.558 216.815 18.504 A 13.585 13.585 0 0 1 217.002 18.502 Q 232.702 18.502 232.702 33.702 L 232.702 53.302 A 21.378 21.378 0 0 0 233.372 58.451 Q 233.957 60.81 235.054 63.358 A 42.933 42.933 0 0 0 236.202 65.802 L 225.602 70.302 A 71.385 71.385 0 0 1 223.785 66.567 Q 222.614 63.959 221.902 61.702 A 22.337 22.337 0 0 1 218.181 66.079 A 14.845 14.845 0 0 1 208.002 70.002 A 15.145 15.145 0 0 1 203.406 69.335 A 12.315 12.315 0 0 1 198.352 66.252 A 12.498 12.498 0 0 1 194.932 59.694 A 18.081 18.081 0 0 1 194.602 56.152 Q 194.602 49.802 200.402 45.152 Q 206.202 40.502 214.502 40.502 Z M 243.802 21.702 L 255.902 19.102 Q 256.802 26.802 257.102 33.702 A 65.162 65.162 0 0 1 261.03 28.208 Q 265.366 22.817 269.439 20.803 A 10.695 10.695 0 0 1 274.202 19.602 L 273.102 35.202 Q 267.302 35.202 263.952 36.252 A 15.315 15.315 0 0 0 260.781 37.685 Q 259.417 38.487 258.029 39.614 A 28.61 28.61 0 0 0 257.102 40.402 L 257.102 44.002 L 258.202 67.502 L 244.802 70.002 L 246.002 45.702 A 208.098 208.098 0 0 0 245.286 33.378 Q 244.764 27.556 243.916 22.389 A 126.465 126.465 0 0 0 243.802 21.702 Z M 36.602 59.302 L 24.702 42.602 L 31.602 37.802 L 43.602 52.102 Q 46.395 46.226 46.498 38.122 A 49.062 49.062 0 0 0 46.502 37.502 A 57.737 57.737 0 0 0 45.918 28.904 Q 44.242 17.838 37.756 14.104 A 15.481 15.481 0 0 0 29.902 12.202 A 16.376 16.376 0 0 0 24.361 13.099 A 13.878 13.878 0 0 0 17.952 17.852 A 18.024 18.024 0 0 0 15.217 23.121 Q 14.359 25.657 13.957 28.78 A 46.868 46.868 0 0 0 13.602 34.752 Q 13.602 44.19 16.874 50.812 A 25.159 25.159 0 0 0 18.252 53.252 A 17.186 17.186 0 0 0 22.039 57.527 A 14.038 14.038 0 0 0 31.002 60.502 Q 34.002 60.502 36.602 59.302 Z M 94.102 55.702 L 94.102 49.002 A 66.506 66.506 0 0 0 90.984 48.37 Q 87.984 47.84 85.807 47.805 A 18.915 18.915 0 0 0 85.502 47.802 A 10.32 10.32 0 0 0 83.124 48.052 Q 79.911 48.815 79.33 51.919 A 8.071 8.071 0 0 0 79.202 53.402 A 8.532 8.532 0 0 0 79.422 55.396 A 5.902 5.902 0 0 0 80.802 58.052 A 5.299 5.299 0 0 0 84.445 59.782 A 7.266 7.266 0 0 0 85.002 59.802 Q 89.002 59.802 94.102 55.702 Z M 221.302 55.702 L 221.302 49.002 A 66.506 66.506 0 0 0 218.184 48.37 Q 215.184 47.84 213.007 47.805 A 18.915 18.915 0 0 0 212.702 47.802 A 10.32 10.32 0 0 0 210.324 48.052 Q 207.111 48.815 206.53 51.919 A 8.071 8.071 0 0 0 206.402 53.402 A 8.532 8.532 0 0 0 206.622 55.396 A 5.902 5.902 0 0 0 208.002 58.052 A 5.299 5.299 0 0 0 211.645 59.782 A 7.266 7.266 0 0 0 212.202 59.802 Q 216.202 59.802 221.302 55.702 Z" vector-effect="non-scaling-stroke"/></g></svg>